<svg width="87" height="87" viewBox="0 0 87 87" fill="none" xmlns="http://www.w3.org/2000/svg">
<g clip-path="url(#clip0_3_91)">
<path d="M43.5 67.9688C46.5004 70.6187 50.3719 72.0705 54.375 72.0469C81.5625 72.0469 85.6406 36.7031 85.6406 36.7031C65.25 33.9844 61.1719 40.7812 61.1719 40.7812C62.5312 16.3125 43.5 1.35938 43.5 1.35938C43.5 1.35938 24.4688 16.3125 25.8281 40.7812C25.8281 40.7812 21.75 33.9844 1.35938 36.7031C1.35938 36.7031 5.4375 72.0469 32.625 72.0469C36.6281 72.0705 40.4996 70.6187 43.5 67.9688Z" fill="#AEDEB4"/>
<path d="M85.8199 35.3559C72.5279 33.5887 65.7949 35.8181 62.599 37.7783C62.3693 14.7301 45.1066 0.891683 44.3399 0.29084C44.1004 0.10254 43.8045 0.000175476 43.4998 0.000175476C43.1951 0.000175476 42.8993 0.10254 42.6597 0.29084C41.893 0.891683 24.6303 14.7301 24.4006 37.777C21.2061 35.8154 14.4717 33.5765 1.17975 35.3559C0.826792 35.4031 0.506442 35.5869 0.287574 35.8678C0.0687059 36.1487 -0.0312035 36.5042 0.00932641 36.858C0.051467 37.2251 4.551 73.4062 32.6248 73.4062C35.9891 73.4117 39.2869 72.4694 42.1404 70.6874V85.6406C42.1404 86.0011 42.2837 86.3468 42.5386 86.6018C42.7935 86.8567 43.1393 86.9999 43.4998 86.9999C43.8603 86.9999 44.2061 86.8567 44.461 86.6018C44.716 86.3468 44.8592 86.0011 44.8592 85.6406V70.6874C47.7127 72.4694 51.0105 73.4117 54.3748 73.4062C82.4486 73.4062 86.9482 37.2251 86.9903 36.858C87.0308 36.5042 86.9309 36.1487 86.712 35.8678C86.4932 35.5869 86.1728 35.4031 85.8199 35.3559ZM54.3748 70.6874C50.9175 70.6828 47.5637 69.508 44.8592 67.3542V60.6933L53.2873 56.9414L59.1476 61.0508C59.4429 61.2475 59.8035 61.3209 60.1522 61.2553C60.501 61.1897 60.8102 60.9904 61.014 60.6999C61.2177 60.4093 61.2998 60.0506 61.2426 59.7004C61.1855 59.3502 60.9937 59.0362 60.7081 58.8255L56.1828 55.6527L63.9312 52.2054C64.1013 52.1377 64.2561 52.0364 64.3861 51.9075C64.5161 51.7786 64.6187 51.6247 64.6878 51.4552C64.7569 51.2856 64.791 51.1039 64.7881 50.9208C64.7852 50.7377 64.7454 50.5571 64.671 50.3899C64.5966 50.2226 64.4892 50.072 64.3552 49.9473C64.2212 49.8225 64.0634 49.7261 63.8912 49.6638C63.719 49.6016 63.5361 49.5747 63.3533 49.5849C63.1704 49.5951 62.9916 49.6421 62.8274 49.7231L55.079 53.1705L55.7491 47.6841C55.7861 47.3296 55.6824 46.9747 55.4602 46.696C55.2381 46.4172 54.9154 46.2368 54.5616 46.1937C54.2078 46.1506 53.8512 46.2481 53.5686 46.4654C53.286 46.6826 53.1001 47.0021 53.0508 47.3551L52.1835 54.4592L44.8592 57.719V40.1912L50.9968 36.5087C51.1532 36.4185 51.2901 36.298 51.3995 36.1543C51.5088 36.0106 51.5885 35.8465 51.6337 35.6717C51.679 35.4969 51.6889 35.3148 51.663 35.1361C51.6372 34.9574 51.5759 34.7856 51.4829 34.6309C51.3899 34.4761 51.267 34.3414 51.1213 34.2346C50.9757 34.1279 50.8102 34.0512 50.6346 34.0091C50.459 33.967 50.2767 33.9603 50.0985 33.9895C49.9203 34.0186 49.7497 34.0829 49.5966 34.1787L44.8592 37.0212V25.8281C44.8592 25.4675 44.716 25.1218 44.461 24.8668C44.2061 24.6119 43.8603 24.4687 43.4998 24.4687C43.1393 24.4687 42.7935 24.6119 42.5386 24.8668C42.2837 25.1218 42.1404 25.4675 42.1404 25.8281V37.0212L37.403 34.1787C37.2499 34.0829 37.0793 34.0186 36.9011 33.9895C36.7229 33.9603 36.5406 33.967 36.365 34.0091C36.1894 34.0512 36.024 34.1279 35.8783 34.2346C35.7327 34.3414 35.6097 34.4761 35.5167 34.6309C35.4237 34.7856 35.3625 34.9574 35.3366 35.1361C35.3107 35.3148 35.3206 35.4969 35.3659 35.6717C35.4112 35.8465 35.4908 36.0106 35.6002 36.1543C35.7095 36.298 35.8464 36.4185 36.0029 36.5087L42.1404 40.1912V57.719L34.8202 54.4565L33.9529 47.3524C33.9036 46.9994 33.7177 46.6799 33.4351 46.4626C33.1525 46.2454 32.7959 46.1478 32.4421 46.191C32.0883 46.2341 31.7656 46.4145 31.5434 46.6932C31.3213 46.972 31.2176 47.3269 31.2546 47.6814L31.9247 53.1678L24.1763 49.7204C23.85 49.5907 23.4862 49.5922 23.161 49.7247C22.8359 49.8572 22.5746 50.1104 22.4319 50.4313C22.2892 50.7521 22.2762 51.1157 22.3956 51.4459C22.5151 51.7761 22.7576 52.0473 23.0725 52.2027L30.8209 55.65L26.2956 58.8228C26.1447 58.9233 26.0154 59.0529 25.9154 59.2041C25.8153 59.3553 25.7465 59.5249 25.713 59.7031C25.6795 59.8812 25.682 60.0643 25.7203 60.2415C25.7586 60.4186 25.8319 60.5864 25.936 60.7348C26.0401 60.8832 26.1728 61.0093 26.3264 61.1057C26.4799 61.202 26.6512 61.2667 26.8301 61.2959C27.009 61.3251 27.1919 61.3182 27.3681 61.2757C27.5443 61.2331 27.7103 61.1557 27.8561 61.0481L33.7123 56.9428L42.1404 60.6947V67.3556C39.4356 69.5086 36.0819 70.6829 32.6248 70.6874C9.91373 70.6874 3.99773 44.1796 2.91295 37.8789C20.6841 35.8059 24.6385 41.4459 24.663 41.4813C24.8189 41.7426 25.0581 41.9441 25.3422 42.0534C25.6263 42.1627 25.9389 42.1734 26.2298 42.084C26.5207 41.9945 26.7732 41.81 26.9468 41.56C27.1205 41.31 27.2051 41.0089 27.1873 40.7051C26.0454 20.1853 39.9029 6.37268 43.4998 3.14825C47.0994 6.36725 60.9555 20.1472 59.8123 40.7051C59.7962 41.0033 59.8794 41.2985 60.0489 41.5444C60.2183 41.7904 60.4645 41.9732 60.7489 42.0644C61.0355 42.1562 61.3442 42.1516 61.6279 42.0515C61.9117 41.9513 62.1549 41.7611 62.3204 41.5098C62.3571 41.4514 66.3088 35.8167 84.0839 37.8844C83.0019 44.1796 77.0859 70.6874 54.3748 70.6874Z" fill="#003314"/>
</g>
<defs>
<clipPath id="clip0_3_91">
<rect width="87" height="87" fill="white"/>
</clipPath>
</defs>
</svg>
