<svg width="142" height="95" viewBox="0 0 142 95" fill="none" xmlns="http://www.w3.org/2000/svg">
<path d="M118.583 60.372L130.721 27.732C131.129 26.508 131.333 25.692 131.333 24.876C131.333 22.53 129.497 22.122 124.295 21.51V18.552H141.227V21.51C137.555 22.428 136.841 23.244 136.025 25.284L113.993 82.2C110.933 89.952 107.771 94.338 101.345 94.338C98.0811 94.338 94.7151 92.502 93.7971 89.442V85.464C95.7351 85.974 97.2651 86.382 100.121 86.382C105.629 86.382 109.097 84.852 111.443 78.528L113.279 73.632L92.1651 25.284C91.2471 23.142 90.6351 22.428 86.9631 21.51V18.552H111.851V21.51C106.649 22.122 104.813 22.53 104.813 24.876C104.813 25.692 105.017 26.508 105.425 27.732L118.583 60.372Z" fill="#003314"/>
<path d="M85.9511 18.552V21.51C82.1771 22.428 81.6671 23.142 80.7491 25.284L61.0631 72.918H58.1051L36.5831 25.284C35.6651 23.142 35.0531 22.428 31.3811 21.51V18.552H56.3711V21.51C51.1691 22.122 49.3331 22.53 49.3331 24.876C49.3331 25.692 49.5371 26.508 49.9451 27.732L62.8991 58.74L75.2411 27.63C75.7511 26.304 75.9551 25.692 75.9551 24.876C75.9551 22.53 74.0171 22.224 68.8151 21.51V18.552H85.9511Z" fill="#003314"/>
<path d="M21.46 10.698V61.698C21.46 67.41 22.684 68.022 30.028 68.94V72H0.855957V68.94C8.19996 68.022 9.42396 67.41 9.42396 61.698V10.698C9.42396 4.986 8.19996 4.37399 0.855957 3.45599V0.395996H30.028V3.45599C22.684 4.37399 21.46 4.986 21.46 10.698Z" fill="#003314"/>
</svg>
