<svg width="107" height="54" viewBox="0 0 107 54" fill="none" xmlns="http://www.w3.org/2000/svg">
<path d="M15.6 3.43599H15.1V3.93599V21.228H7.588V3.93599V3.43599H7.088H1.328H0.828003V3.93599V44V44.5H1.328H7.088H7.588V44V26.9H15.1V44V44.5H15.6H21.36H21.86V44V3.93599V3.43599H21.36H15.6ZM27.7715 52.832V53.332H28.2715H32.1115C34.1774 53.332 35.9014 52.8256 37.2378 51.7681C38.5738 50.7109 39.4693 49.145 39.9575 47.1255L39.9603 47.1141L39.9625 47.1025L46.5545 12.8625L46.6689 12.268H46.0635H40.2395H39.8168L39.7465 12.6848L35.8063 36.0404L31.5795 12.679L31.5052 12.268H31.0875H25.1995H24.5821L24.7104 12.8719L31.2384 43.5919L31.3226 43.988H31.7275H34.2269L33.7394 45.9866C33.5759 46.5815 33.2716 46.9971 32.8356 47.2738C32.3868 47.5586 31.754 47.724 30.8955 47.724H28.2715H27.7715V48.224V52.832ZM61.0265 0.68399H60.5265V1.18399V13.416C60.3344 13.2239 60.1206 13.0531 59.8847 12.9048C59.121 12.4243 58.1671 12.204 57.0585 12.204H54.7545C52.7588 12.204 51.17 12.6975 50.0829 13.7725C48.9949 14.8484 48.4945 16.4228 48.4945 18.4V38.368C48.4945 40.3253 48.9957 41.8844 50.0849 42.9495C51.1721 44.0125 52.7602 44.5 54.7545 44.5H57.0585C58.1671 44.5 59.121 44.2797 59.8847 43.7992C60.1206 43.6508 60.3344 43.4801 60.5265 43.288V44V44.5H61.0265H66.7865H67.2865V44V1.18399V0.68399H66.7865H61.0265ZM60.1609 38.4624L60.1492 38.4742L60.1382 38.4867C59.9832 38.6638 59.6342 38.828 58.9145 38.828H56.6745C56.3104 38.828 56.0273 38.8024 55.8165 38.7585C55.6268 38.719 55.5251 38.6706 55.4764 38.6373C55.4359 38.5887 55.3809 38.492 55.3356 38.3107C55.2849 38.1079 55.2545 37.8319 55.2545 37.472V19.232C55.2545 18.5239 55.3881 18.2175 55.4921 18.1135C55.5331 18.0725 55.6299 18.0085 55.8358 17.9571C56.0386 17.9064 56.3146 17.876 56.6745 17.876H58.9145C59.6342 17.876 59.9832 18.0401 60.1382 18.2172L60.1492 18.2298L60.1609 18.2415C60.362 18.4426 60.5265 18.853 60.5265 19.616V37.088C60.5265 37.851 60.362 38.2614 60.1609 38.4624ZM85.037 12.704V12.204H84.537H83.257C81.8689 12.204 80.6628 12.6237 79.6684 13.4757C79.3025 13.7868 78.98 14.1306 78.701 14.5062V12.768V12.268H78.201H72.441H71.941V12.768V44V44.5H72.441H78.201H78.701V44V22.432C78.701 20.9125 79.0261 19.8661 79.5897 19.2041C80.1402 18.5575 80.989 18.196 82.233 18.196H84.537H85.037V17.696V12.704ZM99.339 12.268H98.839V12.768V13.48C98.6469 13.2879 98.4331 13.1171 98.1972 12.9688C97.4335 12.4883 96.4796 12.268 95.371 12.268H93.067C91.0713 12.268 89.4825 12.7615 88.3954 13.8365C87.3074 14.9124 86.807 16.4868 86.807 18.464V38.368C86.807 40.3253 87.3082 41.8844 88.3974 42.9495C89.4846 44.0125 91.0727 44.5 93.067 44.5H95.371C96.4796 44.5 97.4335 44.2797 98.1972 43.7992C98.4331 43.6508 98.6469 43.4801 98.839 43.288V44V44.5H99.339H105.099H105.599V44V12.768V12.268H105.099H99.339ZM98.4734 38.4624L98.4617 38.4742L98.4507 38.4867C98.2958 38.6638 97.9466 38.828 97.227 38.828H94.987C94.6229 38.828 94.3398 38.8024 94.129 38.7585C93.9393 38.719 93.8376 38.6706 93.7889 38.6373C93.7484 38.5887 93.6934 38.492 93.6481 38.3107C93.5974 38.1079 93.567 37.8319 93.567 37.472V19.296C93.567 18.9351 93.5976 18.667 93.6468 18.4782C93.6974 18.2843 93.7552 18.2214 93.7711 18.2081L93.7885 18.1936L93.8046 18.1775C93.8456 18.1365 93.9424 18.0725 94.1483 18.0211C94.3511 17.9704 94.6271 17.94 94.987 17.94H97.227C97.9466 17.94 98.2957 18.1041 98.4507 18.2812L98.4617 18.2938L98.4734 18.3055C98.6745 18.5066 98.839 18.917 98.839 19.68V37.088C98.839 37.851 98.6745 38.2614 98.4734 38.4624Z" fill="url(#paint0_linear_10_550)" stroke="#2B2A3A"/>
<defs>
<linearGradient id="paint0_linear_10_550" x1="52.9954" y1="-0.0177293" x2="52.9954" y2="76.6322" gradientUnits="userSpaceOnUse">
<stop stop-color="#9F73CB"/>
<stop offset="1" stop-color="#6525B7"/>
</linearGradient>
</defs>
</svg>
